<svg width="509" height="68" viewBox="0 0 509 68" fill="none" xmlns="http://www.w3.org/2000/svg">
<path d="M10.6928 66V1.68H13.0928V66H10.6928ZM0.132813 66V1.68H2.53281V66H0.132813ZM5.41281 66V1.68H7.81281V66H5.41281ZM15.9728 39.12V36.72H34.7728C37.8128 36.72 40.5595 36.0533 43.0128 34.72C45.5195 33.3867 47.4928 31.4933 48.9328 29.04C50.4261 26.5867 51.1728 23.7067 51.1728 20.4C51.1728 17.0933 50.4261 14.2133 48.9328 11.76C47.4928 9.30666 45.5195 7.41333 43.0128 6.08C40.5595 4.74666 37.8128 4.08 34.7728 4.08H15.9728V1.68H34.7728C38.2395 1.68 41.3861 2.48 44.2128 4.08C47.0928 5.62666 49.3595 7.81333 51.0128 10.64C52.7195 13.4133 53.5728 16.6667 53.5728 20.4C53.5728 24.1333 52.7195 27.4133 51.0128 30.24C49.3595 33.0133 47.0928 35.2 44.2128 36.8C41.3861 38.3467 38.2395 39.12 34.7728 39.12H15.9728ZM15.9728 33.84V31.44H34.7728C37.8661 31.44 40.4795 30.48 42.6128 28.56C44.7995 26.5867 45.8928 23.8667 45.8928 20.4C45.8928 16.9333 44.7995 14.24 42.6128 12.32C40.4795 10.3467 37.8661 9.36 34.7728 9.36H15.9728V6.96H34.7728C37.2795 6.96 39.5461 7.52 41.5728 8.64C43.5995 9.70667 45.2261 11.2533 46.4528 13.28C47.6795 15.2533 48.2928 17.6267 48.2928 20.4C48.2928 23.1733 47.6795 25.5733 46.4528 27.6C45.2261 29.5733 43.5995 31.12 41.5728 32.24C39.5461 33.3067 37.2795 33.84 34.7728 33.84H15.9728ZM15.9728 28.56V26.16H34.7728C36.3728 26.16 37.7328 25.7067 38.8528 24.8C40.0261 23.84 40.6128 22.3733 40.6128 20.4C40.6128 18.3733 40.0261 16.9067 38.8528 16C37.7328 15.0933 36.3728 14.64 34.7728 14.64H15.9728V12.24H34.7728C37.0661 12.24 39.0128 12.9333 40.6128 14.32C42.2128 15.7067 43.0128 17.7333 43.0128 20.4C43.0128 23.0667 42.2128 25.0933 40.6128 26.48C39.0128 27.8667 37.0661 28.56 34.7728 28.56H15.9728ZM50.2928 66L39.0128 41.28C39.3861 41.2267 39.7595 41.1733 40.1328 41.12C40.5595 41.0133 40.9595 40.88 41.3328 40.72L52.9328 66H50.2928ZM44.4528 66L33.3328 41.84C33.7595 41.84 34.1861 41.84 34.6128 41.84C35.0928 41.7867 35.5461 41.7333 35.9728 41.68L47.0928 66H44.4528ZM38.6128 66L27.5728 41.92H30.2128L41.2528 66H38.6128ZM68.5422 66L91.8222 1.68H94.3822L71.1022 66H68.5422ZM57.3422 66L80.6222 1.68H83.1022L59.9022 66H57.3422ZM62.9422 66L86.1422 1.68H88.7822L65.5022 66H62.9422ZM115.422 66L94.5422 8.32L95.8222 4.72L117.982 66H115.422ZM109.822 66L91.8222 16.16L93.0222 12.48L112.382 66H109.822ZM104.222 66L89.0222 23.92L90.3022 20.32L106.782 66H104.222ZM81.5822 44.72L82.4622 42.32H93.0222L93.9022 44.72H81.5822ZM79.6622 50.08L80.5422 47.68H94.9422L95.8222 50.08H79.6622ZM77.7422 55.36L78.6222 52.96H96.8622L97.7422 55.36H77.7422ZM146.082 66L124.402 1.68H126.962L148.642 66H146.082ZM134.882 66L113.202 1.68H115.762L137.442 66H134.882ZM140.482 66L118.802 1.68H121.362L143.042 66H140.482ZM147.602 53.92L146.322 50L162.482 1.68H165.042L147.602 53.92ZM144.802 45.52L143.522 41.76L156.882 1.68H159.442L144.802 45.52ZM150.402 62.08L149.122 58.4L168.082 1.68H170.642L150.402 62.08ZM186.005 66V1.68H188.405V66H186.005ZM175.445 66V1.68H177.845V66H175.445ZM180.725 66V1.68H183.125V66H180.725ZM191.285 4.08V1.68H223.205V4.08H191.285ZM191.285 9.36V6.96H223.205V9.36H191.285ZM191.285 14.64V12.24H223.205V14.64H191.285ZM191.285 29.76V27.36H218.645V29.76H191.285ZM191.285 35.04V32.64H218.645V35.04H191.285ZM191.285 40.32V37.92H218.645V40.32H191.285ZM191.285 55.44V53.04H223.205V55.44H191.285ZM191.285 60.72V58.32H223.205V60.72H191.285ZM191.285 66V63.6H223.205V66H191.285ZM271.484 39.28L273.244 37.52L293.644 58L291.964 59.76L271.484 39.28ZM267.804 42.96L269.484 41.28L289.964 61.76L288.284 63.44L267.804 42.96ZM264.044 46.72L265.724 45.04L286.204 65.52L284.524 67.2L264.044 46.72ZM258.924 56.64C254.177 56.64 250.097 55.6267 246.684 53.6C243.271 51.52 240.657 48.7467 238.844 45.28C237.031 41.8133 236.124 38 236.124 33.84C236.124 29.6267 237.031 25.8133 238.844 22.4C240.657 18.9333 243.271 16.1867 246.684 14.16C250.097 12.08 254.177 11.04 258.924 11.04C263.671 11.04 267.724 12.08 271.084 14.16C274.497 16.1867 277.111 18.9333 278.924 22.4C280.737 25.8133 281.644 29.6267 281.644 33.84C281.644 36.3467 281.271 38.8533 280.524 41.36L278.524 39.28C278.951 37.4667 279.164 35.6533 279.164 33.84C279.164 30.1067 278.364 26.72 276.764 23.68C275.164 20.5867 272.844 18.1333 269.804 16.32C266.817 14.4533 263.191 13.52 258.924 13.52C254.657 13.52 250.977 14.4533 247.884 16.32C244.844 18.1333 242.524 20.5867 240.924 23.68C239.324 26.72 238.524 30.1067 238.524 33.84C238.524 37.5733 239.324 40.9867 240.924 44.08C242.524 47.12 244.844 49.5733 247.884 51.44C250.977 53.2533 254.657 54.16 258.924 54.16C261.804 54.16 264.337 53.7333 266.524 52.88L268.444 54.8C265.564 56.0267 262.391 56.64 258.924 56.64ZM258.924 61.92C254.657 61.92 250.791 61.2 247.324 59.76C243.911 58.2667 240.951 56.24 238.444 53.68C235.991 51.12 234.097 48.16 232.764 44.8C231.484 41.3867 230.844 37.7333 230.844 33.84C230.844 29.9467 231.484 26.32 232.764 22.96C234.097 19.5467 235.991 16.56 238.444 14C240.951 11.3867 243.911 9.36 247.324 7.92C250.791 6.48 254.657 5.76 258.924 5.76C263.191 5.76 267.031 6.48 270.444 7.92C273.911 9.36 276.871 11.3867 279.324 14C281.831 16.56 283.724 19.5467 285.004 22.96C286.337 26.32 287.004 29.9467 287.004 33.84C287.004 37.9467 286.231 41.84 284.684 45.52L282.844 43.6C283.964 40.56 284.524 37.3067 284.524 33.84C284.524 29.0933 283.484 24.8 281.404 20.96C279.324 17.0667 276.364 13.9733 272.524 11.68C268.684 9.38666 264.151 8.24 258.924 8.24C253.697 8.24 249.137 9.38666 245.244 11.68C241.404 13.9733 238.444 17.0667 236.364 20.96C234.284 24.8 233.244 29.0933 233.244 33.84C233.244 38.5333 234.284 42.8267 236.364 46.72C238.444 50.6133 241.404 53.7067 245.244 56C249.137 58.2933 253.697 59.44 258.924 59.44C263.137 59.44 267.031 58.6133 270.604 56.96L272.444 58.8C270.471 59.8133 268.364 60.5867 266.124 61.12C263.884 61.6533 261.484 61.92 258.924 61.92ZM258.924 67.2C253.911 67.2 249.351 66.3467 245.244 64.64C241.191 62.88 237.697 60.48 234.764 57.44C231.831 54.4 229.564 50.88 227.964 46.88C226.364 42.8267 225.564 38.48 225.564 33.84C225.564 29.2 226.364 24.88 227.964 20.88C229.564 16.8267 231.831 13.28 234.764 10.24C237.697 7.2 241.191 4.82667 245.244 3.12C249.351 1.36 253.911 0.479995 258.924 0.479995C263.937 0.479995 268.471 1.36 272.524 3.12C276.631 4.82667 280.151 7.2 283.084 10.24C286.017 13.28 288.284 16.8267 289.884 20.88C291.484 24.88 292.284 29.2 292.284 33.84C292.284 36.6667 291.964 39.4133 291.324 42.08C290.737 44.6933 289.857 47.1733 288.684 49.52L286.844 47.68C288.817 43.4133 289.804 38.8 289.804 33.84C289.804 29.5733 289.057 25.5733 287.564 21.84C286.124 18.0533 284.044 14.7467 281.324 11.92C278.604 9.09333 275.351 6.88 271.564 5.27999C267.777 3.68 263.564 2.88 258.924 2.88C254.231 2.88 249.991 3.68 246.204 5.27999C242.417 6.88 239.164 9.09333 236.444 11.92C233.724 14.7467 231.617 18.0533 230.124 21.84C228.684 25.5733 227.964 29.5733 227.964 33.84C227.964 38.1067 228.684 42.1333 230.124 45.92C231.617 49.6533 233.724 52.9333 236.444 55.76C239.164 58.5867 242.417 60.8 246.204 62.4C249.991 64 254.231 64.8 258.924 64.8C261.911 64.8 264.711 64.48 267.324 63.84C269.937 63.1467 272.337 62.1867 274.524 60.96L276.364 62.72C273.911 64.16 271.217 65.2533 268.284 66C265.351 66.8 262.231 67.2 258.924 67.2ZM324.135 56.64C321.095 56.64 318.561 56.0267 316.535 54.8C314.561 53.5733 313.068 51.9467 312.055 49.92C311.095 47.84 310.615 45.5467 310.615 43.04V1.68H313.015V43.04C313.015 46.1333 313.895 48.7733 315.655 50.96C317.415 53.1467 320.241 54.24 324.135 54.24C328.028 54.24 330.855 53.1467 332.615 50.96C334.375 48.7733 335.255 46.1333 335.255 43.04V1.68H337.655V43.04C337.655 45.5467 337.148 47.84 336.135 49.92C335.175 51.9467 333.681 53.5733 331.655 54.8C329.681 56.0267 327.175 56.64 324.135 56.64ZM324.135 67.2C319.175 67.2 314.881 66.1333 311.255 64C307.681 61.8133 304.908 58.88 302.935 55.2C301.015 51.52 300.055 47.4667 300.055 43.04V1.68H302.455V43.04C302.455 47.04 303.308 50.6933 305.015 54C306.775 57.3067 309.255 59.9467 312.455 61.92C315.708 63.84 319.601 64.8 324.135 64.8C328.668 64.8 332.535 63.84 335.735 61.92C338.988 59.9467 341.468 57.3067 343.175 54C344.935 50.6933 345.815 47.04 345.815 43.04V1.68H348.215V43.04C348.215 47.4667 347.228 51.52 345.255 55.2C343.335 58.88 340.588 61.8133 337.015 64C333.441 66.1333 329.148 67.2 324.135 67.2ZM324.135 61.92C320.135 61.92 316.721 61.0667 313.895 59.36C311.121 57.6533 308.988 55.3867 307.495 52.56C306.055 49.68 305.335 46.5067 305.335 43.04V1.68H307.735V43.04C307.735 46.08 308.348 48.8533 309.575 51.36C310.855 53.8133 312.721 55.7867 315.175 57.28C317.628 58.7733 320.615 59.52 324.135 59.52C327.708 59.52 330.695 58.7733 333.095 57.28C335.548 55.7867 337.388 53.8133 338.615 51.36C339.895 48.8533 340.535 46.08 340.535 43.04V1.68H342.935V43.04C342.935 46.5067 342.188 49.68 340.695 52.56C339.255 55.3867 337.121 57.6533 334.295 59.36C331.521 61.0667 328.135 61.92 324.135 61.92ZM366.787 66V1.68H369.187V66H366.787ZM356.227 66V1.68H358.627V66H356.227ZM361.507 66V1.68H363.907V66H361.507ZM372.067 4.08V1.68H403.987V4.08H372.067ZM372.067 9.36V6.96H403.987V9.36H372.067ZM372.067 14.64V12.24H403.987V14.64H372.067ZM372.067 29.76V27.36H399.427V29.76H372.067ZM372.067 35.04V32.64H399.427V35.04H372.067ZM372.067 40.32V37.92H399.427V40.32H372.067ZM372.067 55.44V53.04H403.987V55.44H372.067ZM372.067 60.72V58.32H403.987V60.72H372.067ZM372.067 66V63.6H403.987V66H372.067ZM432.527 56.64C428.741 56.64 425.621 55.92 423.167 54.48C420.714 52.9867 419.381 51.0133 419.167 48.56L421.487 47.92C421.487 49.7333 422.501 51.2533 424.527 52.48C426.607 53.6533 429.274 54.24 432.527 54.24C435.887 54.24 438.607 53.6267 440.687 52.4C442.821 51.1733 443.887 49.6 443.887 47.68C443.887 45.8667 443.007 44.4 441.247 43.28C439.487 42.16 437.087 41.1733 434.047 40.32L429.087 38.88C422.474 36.96 417.487 34.5333 414.127 31.6C410.767 28.6667 409.087 24.64 409.087 19.52C409.087 15.84 410.101 12.5867 412.127 9.76C414.207 6.88 417.007 4.61333 420.527 2.96C424.101 1.30666 428.127 0.479995 432.607 0.479995C436.661 0.479995 440.314 1.14666 443.567 2.48C446.874 3.76 449.594 5.6 451.727 8C453.914 10.4 455.301 13.2 455.887 16.4L453.567 17.04C453.087 14.2133 451.887 11.7333 449.967 9.6C448.047 7.46666 445.594 5.81333 442.607 4.64C439.621 3.46666 436.287 2.88 432.607 2.88C428.554 2.88 424.927 3.62666 421.727 5.12C418.581 6.56 416.074 8.53333 414.207 11.04C412.394 13.5467 411.487 16.4267 411.487 19.68C411.487 24.0533 413.007 27.5733 416.047 30.24C419.141 32.8533 423.701 34.9867 429.727 36.64L434.687 38C438.367 39.0133 441.221 40.24 443.247 41.68C445.274 43.12 446.287 45.0667 446.287 47.52C446.287 50.24 445.034 52.4533 442.527 54.16C440.021 55.8133 436.687 56.64 432.527 56.64ZM432.527 61.92C427.514 61.92 423.301 60.8267 419.887 58.64C416.527 56.4 414.554 53.4933 413.967 49.92L416.367 49.28C416.794 52.3733 418.447 54.8533 421.327 56.72C424.261 58.5867 427.994 59.52 432.527 59.52C435.834 59.52 438.741 59.0133 441.247 58C443.754 56.9867 445.701 55.5733 447.087 53.76C448.474 51.9467 449.167 49.8667 449.167 47.52C449.167 44.2667 447.941 41.7067 445.487 39.84C443.034 37.92 439.647 36.3733 435.327 35.2L430.447 33.84C425.274 32.4 421.301 30.5867 418.527 28.4C415.754 26.2133 414.367 23.3067 414.367 19.68C414.367 16.96 415.141 14.56 416.687 12.48C418.287 10.4 420.474 8.77333 423.247 7.6C426.021 6.37333 429.141 5.76 432.607 5.76C435.861 5.76 438.767 6.26666 441.327 7.28C443.941 8.24 446.074 9.62666 447.727 11.44C449.381 13.2533 450.394 15.36 450.767 17.76L448.367 18.4C447.994 15.3067 446.341 12.8267 443.407 10.96C440.527 9.09333 436.927 8.16 432.607 8.16C429.567 8.16 426.847 8.66666 424.447 9.68C422.047 10.64 420.154 12 418.767 13.76C417.434 15.4667 416.767 17.44 416.767 19.68C416.767 22.72 417.967 25.12 420.367 26.88C422.821 28.64 426.367 30.1867 431.007 31.52L435.807 32.88C440.767 34.2667 444.634 36.1067 447.407 38.4C450.181 40.64 451.567 43.68 451.567 47.52C451.567 50.3467 450.767 52.8533 449.167 55.04C447.567 57.1733 445.327 58.8533 442.447 60.08C439.621 61.3067 436.314 61.92 432.527 61.92ZM432.527 67.2C428.367 67.2 424.607 66.56 421.247 65.28C417.941 63.9467 415.194 62.1067 413.007 59.76C410.874 57.36 409.487 54.5333 408.847 51.28L411.167 50.64C411.701 53.52 412.901 56.0267 414.767 58.16C416.687 60.24 419.167 61.8667 422.207 63.04C425.247 64.2133 428.687 64.8 432.527 64.8C436.901 64.8 440.714 64.08 443.967 62.64C447.274 61.1467 449.834 59.12 451.647 56.56C453.514 53.9467 454.447 50.9333 454.447 47.52C454.447 42.9867 452.874 39.36 449.727 36.64C446.581 33.92 442.154 31.7333 436.447 30.08L431.727 28.72C427.834 27.6 424.847 26.3733 422.767 25.04C420.687 23.7067 419.647 21.92 419.647 19.68C419.647 17.0667 420.874 14.9867 423.327 13.44C425.781 11.84 428.874 11.04 432.607 11.04C436.234 11.04 439.221 11.7867 441.567 13.28C443.914 14.7733 445.247 16.72 445.567 19.12L443.247 19.76C443.141 17.8933 442.101 16.3733 440.127 15.2C438.207 14.0267 435.701 13.44 432.607 13.44C429.674 13.44 427.167 14 425.087 15.12C423.061 16.24 422.047 17.7067 422.047 19.52C422.047 21.1733 422.981 22.5067 424.847 23.52C426.767 24.5333 429.274 25.4933 432.367 26.4L436.927 27.76C443.381 29.68 448.314 32.1867 451.727 35.28C455.141 38.32 456.847 42.4533 456.847 47.68C456.847 51.4667 455.807 54.8533 453.727 57.84C451.701 60.7733 448.847 63.0667 445.167 64.72C441.541 66.3733 437.327 67.2 432.527 67.2ZM458.417 4.08V1.68H508.097V4.08H458.417ZM458.417 9.36V6.96H508.097V9.36H458.417ZM458.417 14.64V12.24H508.097V14.64H458.417ZM487.377 66V17.2H489.777V66H487.377ZM476.817 66V17.2H479.217V66H476.817ZM482.097 66V17.2H484.497V66H482.097Z" fill="black"/>
</svg>
